<?xml version="1.0" encoding="UTF-8" standalone="no"?>
<!-- Created with Inkscape (http://www.inkscape.org/) -->

<svg
   xmlns:dc="http://purl.org/dc/elements/1.1/"
   xmlns:cc="http://creativecommons.org/ns#"
   xmlns:rdf="http://www.w3.org/1999/02/22-rdf-syntax-ns#"
   xmlns:svg="http://www.w3.org/2000/svg"
   xmlns="http://www.w3.org/2000/svg"
   xmlns:sodipodi="http://sodipodi.sourceforge.net/DTD/sodipodi-0.dtd"
   xmlns:inkscape="http://www.inkscape.org/namespaces/inkscape"
   width="123.72241mm"
   height="89.96759mm"
   viewBox="0 0 123.72242 89.96759"
   version="1.1"
   id="svg1040"
   inkscape:version="0.92.5 (2060ec1f9f, 2020-04-08)"
   sodipodi:docname="user_guide2.svg">
  <defs
     id="defs1034" />
  <sodipodi:namedview
     id="base"
     pagecolor="#ffffff"
     bordercolor="#666666"
     borderopacity="1.0"
     inkscape:pageopacity="0.0"
     inkscape:pageshadow="2"
     inkscape:zoom="1.4"
     inkscape:cx="113.89636"
     inkscape:cy="155.11003"
     inkscape:document-units="mm"
     inkscape:current-layer="layer1"
     showgrid="false"
     fit-margin-top="0"
     fit-margin-left="0"
     fit-margin-right="0"
     fit-margin-bottom="0"
     inkscape:window-width="1280"
     inkscape:window-height="1016"
     inkscape:window-x="0"
     inkscape:window-y="27"
     inkscape:window-maximized="0" />
  <metadata
     id="metadata1037">
    <rdf:RDF>
      <cc:Work
         rdf:about="">
        <dc:format>image/svg+xml</dc:format>
        <dc:type
           rdf:resource="http://purl.org/dc/dcmitype/StillImage" />
        <dc:title />
      </cc:Work>
    </rdf:RDF>
  </metadata>
  <g
     inkscape:label="Layer 1"
     inkscape:groupmode="layer"
     id="layer1"
     transform="translate(141.8903,-20.32143)">
    <path
       style="fill:#565656;fill-opacity:1;stroke:#000000;stroke-width:0.10101525;stroke-miterlimit:4;stroke-dasharray:none;stroke-opacity:1"
       d="m -47.407695,20.707103 c -8.38362,-0.250029 -16.82697,2.282517 -23.72905,7.032007 -3.31865,2.26794 -6.00056,5.29227 -8.941,7.99355 -6.65345,-8.49951 -16.97177,-13.87538 -27.667225,-14.935558 -6.9785,-0.09965 -14.22217,-0.569134 -20.8803,1.911388 -2.37954,1.34102 -1.53843,4.59904 -1.84634,6.83966 0.35232,1.77914 -0.35009,2.59762 -2.08284,2.80084 -2.80463,1.16974 -5.80581,2.06784 -8.36992,3.69949 -0.90115,2.58507 -0.4461,5.50201 -0.63326,8.21955 -0.11078,20.25663 -0.26264,40.51847 0.0657,60.77284 0.17291,1.61494 -0.3723,3.55039 1.32291,4.4942 1.59665,1.35654 3.78417,-0.21285 5.49958,-0.54914 9.2186,-3.36422 18.6336,-6.57737 28.42016,-7.72943 4.46356,-0.0624 8.979325,-0.36053 13.413595,0.22186 3.72589,0.77124 7.02032,2.72855 9.87227,5.19035 2.45913,1.4703 5.79923,0.80663 7.74088,-1.25616 3.8526,-3.17611 8.89901,-4.60855 13.84948,-4.24479 5.17359,-0.11738 10.38257,0.0253 15.406085,1.4006 8.0504,1.68134 15.72492,4.67599 23.500429,7.26948 2.050534,1.02014 4.485703,-0.87224 4.073255,-3.10554 0.271915,-21.54512 0.104439,-43.09536 -0.03158,-64.64145 -0.185285,-1.97157 0.234363,-4.15835 -0.442939,-6.00844 -3.150401,-2.14655 -6.957171,-3.06177 -10.448567,-4.51487 -0.343869,-2.71635 0.363804,-5.7764 -1.010092,-8.24673 -2.665725,-1.81426 -6.126522,-1.98115 -9.252223,-2.375097 -2.603576,-0.214234 -5.217871,-0.249784 -7.829012,-0.23861 z m 2.044192,3.885327 c 4.053848,-0.0146 8.117427,0.43815 12.038091,1.48251 -0.07294,20.75289 0.0726,41.5281 -0.212981,62.26701 -6.386148,-0.66825 -12.84872,-1.72209 -19.274492,-0.75572 -9.07159,1.15073 -17.75732,5.19327 -24.25964,11.66053 -1.14524,1.24097 -0.35088,-1.73017 -0.61962,-2.29773 -0.25267,-18.83437 -0.41471,-37.67058 -0.40091,-56.50679 2.4471,-3.96879 6.05842,-7.12925 9.77465,-9.88114 6.11258,-3.87843 13.30445,-6.08888 20.567225,-5.94936 0.795769,-0.0166 1.591739,-0.0238 2.387677,-0.0193 z m -66.333487,0.11484 c 7.55664,-0.30312 15.055525,2.32267 21.234885,6.57003 3.13574,2.6226 6.25942,5.37032 8.62727,8.73115 -0.0521,19.68688 0.11812,39.37752 -0.1686,59.06187 -0.26211,1.41731 -1.31373,-0.38784 -1.82078,-0.7329 -6.85106,-6.65276 -16.211305,-10.29983 -25.663465,-10.97225 -5.4885,-0.53295 -11.04852,0.22999 -16.41583,1.03734 -0.49372,-9.34106 -0.19407,-18.72378 -0.29672,-28.08105 -0.003,-11.45727 -5.3e-4,-22.91454 -10e-4,-34.3718 4.73609,-1.28528 9.63614,-1.31715 14.50459,-1.24239 z m -18.7809,38.10105 c 0.10907,8.97462 -0.2525,17.96975 0.30694,26.93054 0.0442,2.01414 2.30845,3.40624 4.16829,2.69701 4.84644,-0.87666 9.7522,-1.37083 14.683,-1.13719 7.09736,-0.0511 14.190645,2.20731 20.048445,6.16124 0.22775,0.76415 -1.10443,-0.18825 -1.43292,0.0104 -11.318005,-1.37802 -22.707555,0.83621 -33.427515,4.41038 -3.75876,1.23175 -7.51949,2.46592 -11.20964,3.89324 -0.48942,-22.35296 -0.31472,-44.71298 -0.35288,-67.06951 2.34195,-1.11736 4.77921,-2.01297 7.21628,-2.89664 0,9.00016 0,18.00033 0,27.00049 z M -28.694134,36.06779 c 2.176621,0.65771 4.253849,1.60273 6.373233,2.42004 0.291242,21.31951 0.571111,42.64823 0.139898,63.96668 -0.157014,1.03691 0.04758,2.48379 -0.36802,3.32939 -10.663951,-4.09298 -21.716158,-7.65528 -33.151862,-8.6398 -4.39082,-0.18627 -8.85229,-0.22654 -13.17137,0.69219 4.07882,-3.45328 9.4615,-4.89144 14.5688,-6.0642 4.969773,-0.78329 10.074215,-0.62405 15.07112,-0.17681 2.553258,0.16981 5.13152,1.34801 7.671318,0.8288 2.610157,-1.02925 1.870443,-4.1647 2.051371,-6.34807 0.187616,-16.34901 -0.135779,-32.71194 0.274187,-49.05294 0.103,-0.27859 0.114406,-0.95287 0.541325,-0.95528 z"
       id="path1998"
       inkscape:connector-curvature="0" />
  </g>
</svg>
