<svg version="1.1" id="Layer_1" xmlns="http://www.w3.org/2000/svg" xmlns:xlink="http://www.w3.org/1999/xlink" x="0px" y="0px"
	 viewBox="85.119118 182.738525 1068.800804 853.330567" xml:space="preserve">

<path fill="#030404" opacity="1.000000" stroke="none" d=" M541.297791,199.331787   C549.059692,189.624939 558.819458,184.739273 570.936462,184.738525   C655.931396,184.733353 740.926270,184.697784 825.921204,184.762375   C847.144775,184.778503 862.837097,200.247757 863.283752,221.460800   C863.497742,231.621994 863.183472,241.794373 863.401367,251.955383   C863.433350,253.444168 864.750793,255.477814 866.067932,256.266113   C871.370667,259.439819 874.481384,263.829712 874.556274,270.031036   C874.677063,280.028931 874.763367,290.032562 874.559875,300.027557   C874.363037,309.699036 867.735046,316.212769 858.109497,316.538361   C854.284729,316.667755 850.451904,316.559601 846.301147,316.559601   C846.301147,329.459229 846.301147,342.196136 846.301147,355.305267   C847.543213,355.408112 848.804077,355.603180 850.064880,355.603577   C880.396362,355.613251 910.728149,355.543610 941.059021,355.676849   C944.437317,355.691681 945.895935,354.590973 947.301697,351.540588   C953.592163,337.890778 964.402832,330.694733 979.512451,330.147247   C979.678894,330.141205 979.846680,330.156372 980.012268,330.142639   C1002.080322,328.313873 1017.506775,336.856689 1024.337524,358.822540   C1033.799438,358.822540 1043.130737,359.027222 1052.450684,358.789307   C1112.925659,357.245758 1152.006592,406.120941 1151.919922,457.649078   C1151.735962,567.142334 1151.907715,676.636230 1151.843384,786.129822   C1151.836060,798.778870 1152.309937,811.557922 1150.760864,824.053650   C1144.309570,876.091125 1102.595581,912.295776 1050.091064,912.224487   C1042.091553,912.213623 1034.091309,912.286316 1026.093018,912.187744   C1023.592957,912.156982 1022.035583,912.604797 1020.626343,915.169617   C1013.351868,928.408997 1002.226440,935.164734 986.821167,935.043274   C977.169250,934.967102 967.530212,934.901367 959.768372,928.430542   C955.385498,924.776733 951.765442,920.063904 948.402893,915.395203   C946.884521,913.286987 945.865601,912.012024 943.083130,912.121216   C937.100098,912.356079 931.101440,912.193237 924.686523,912.193237   C924.686523,927.507202 924.686523,942.545227 924.686523,958.137268   C927.084045,958.137268 929.367432,958.138306 931.650757,958.137146   C962.982239,958.121155 994.313782,958.112793 1025.645264,958.085205   C1040.545044,958.072083 1045.958130,963.388489 1045.962402,978.086243   C1045.966187,990.752136 1045.978882,1003.418091 1045.994141,1016.083984   C1046.008789,1028.175415 1040.119385,1034.061890 1027.865967,1034.063721   C945.704041,1034.075562 863.542175,1034.068970 781.380249,1034.069092   C649.721191,1034.069214 518.062073,1034.071655 386.403015,1034.067993   C371.360992,1034.067505 366.219177,1028.967407 366.207977,1014.089539   C366.198334,1001.256958 366.178253,988.424438 366.192871,975.591858   C366.205475,964.510437 372.378113,958.179932 383.520508,958.152954   C413.851868,958.079529 444.183502,958.126160 474.515045,958.125305   C478.824097,958.125183 483.133148,958.125305 487.800781,958.125305   C487.800781,942.705627 487.800781,927.672485 487.800781,912.254883   C483.858307,912.254883 480.039246,912.018066 476.279907,912.388184   C475.027954,912.511475 473.548676,913.963562 472.816803,915.191711   C459.709290,937.185852 428.420868,942.968262 409.118225,926.277893   C403.919800,921.783020 400.584747,915.133179 396.299744,909.344788   C385.970581,907.866882 374.347809,907.356506 363.369446,904.429321   C320.771515,893.071655 292.460968,854.826904 292.382324,809.712585   C292.344299,787.898804 292.375763,766.084900 292.375763,743.484192   C289.950806,743.484192 287.698151,743.482178 285.445526,743.484558   C275.613129,743.494873 265.780365,743.567139 255.948456,743.503723   C240.342636,743.403076 230.648773,733.715576 230.614029,718.235474   C230.582672,704.272583 230.607407,690.309631 230.607407,675.846558   C228.646667,675.846558 227.017929,675.845947 225.389206,675.846680   C187.224838,675.863464 149.060455,675.888306 110.896088,675.893616   C95.582169,675.895752 87.122185,667.384766 87.132950,652.087708   C87.143974,636.421936 87.124046,620.756165 87.119118,605.090393   C87.113792,588.175171 95.269783,580.135620 112.376144,580.148499   C149.540619,580.176514 186.705078,580.189819 223.869553,580.208984   C226.000977,580.210083 228.132401,580.209167 230.623672,580.209167   C230.623672,565.205139 231.129425,550.720642 230.496857,536.286011   C229.689056,517.852722 243.019913,508.096436 257.987640,508.874756   C269.245331,509.460175 280.557892,508.990448 292.416168,508.990448   C292.416168,506.729248 292.417175,504.946289 292.416046,503.163300   C292.406189,487.830872 292.325073,472.498108 292.398743,457.166077   C292.646301,405.636719 330.031525,365.095795 381.233551,360.788544   C386.201752,360.370605 391.180573,360.078796 396.484375,359.705231   C398.593140,351.880371 402.008270,344.579254 408.407501,339.107300   C429.036804,321.467224 462.046844,328.476227 474.120728,352.933807   C474.707550,354.122498 476.421967,355.527832 477.614105,355.530396   C502.275574,355.583832 526.937439,355.449463 551.599182,355.335876   C551.902283,355.334473 552.204285,355.119110 552.868530,354.865479   C552.868530,342.425934 552.868530,329.847595 552.868530,316.611267   C548.756042,316.611267 544.492737,316.661530 540.230957,316.601501   C529.072754,316.444397 522.630493,309.897736 522.604248,298.724884   C522.582703,289.559021 522.636536,280.392639 522.560242,271.227325   C522.504822,264.577332 525.485352,259.904510 531.091553,256.438660   C532.498047,255.569183 533.760925,253.271301 533.806702,251.594818   C534.065857,242.102493 533.975891,232.599319 533.924866,223.100250   C533.878784,214.516968 536.065796,206.645309 541.297791,199.331787  M144.737732,652.156799   C145.492172,652.094788 146.246628,652.032776 147.923813,652.146973   C175.366669,652.146973 202.809525,652.146973 230.662872,652.146973   C230.662872,636.174683 230.675964,620.717896 230.593201,605.261597   C230.590958,604.842041 229.554169,604.428040 228.154190,603.840393   C226.435501,603.910217 224.716812,603.980103 222.089706,603.884521   C218.393753,603.936951 214.697784,603.989380 210.128510,603.854614   C207.751846,603.915894 205.375168,603.977112 202.340057,603.867859   C201.893890,603.925110 201.447723,603.982361 200.213715,603.855042   C199.141998,603.915955 198.070267,603.976929 196.177612,603.864929   C194.785568,603.923157 193.393539,603.981384 191.079987,603.854309   C168.386230,603.914612 145.692474,603.974854 122.081787,603.866272   C118.294426,603.866272 114.507057,603.866272 110.451477,603.866272   C110.451477,620.101257 110.451477,635.956360 110.451477,651.915955   C111.287094,652.014038 111.931717,652.159790 112.575050,652.154297   C118.382988,652.104858 124.190697,652.028992 130.898941,652.147644   C134.266357,652.087097 137.633789,652.026550 141.740311,652.141846   C142.493164,652.084290 143.246017,652.026733 144.737732,652.156799  M292.294891,646.028687   C292.237854,622.373962 292.180817,598.719238 292.270599,574.196350   C292.223999,572.439758 292.177429,570.683228 292.317810,568.082397   C292.246277,566.073120 292.174744,564.063904 292.243439,561.116394   C292.289917,553.133606 292.405090,545.150085 292.318848,537.168701   C292.303497,535.749329 291.451324,534.338867 290.060181,532.768555   C278.136505,532.768555 266.212860,532.768555 254.119461,532.768555   C254.119461,595.601807 254.119461,657.707275 254.119461,719.778198   C266.995483,719.778198 279.401306,719.778198 292.109253,719.778198   C292.109253,713.288330 292.109253,707.173462 292.255768,700.130615   C292.212463,696.062683 292.169128,691.994812 292.315338,687.223450   C292.250366,686.503906 292.185394,685.784302 292.263611,684.135437   C292.210175,680.070740 292.156738,676.006104 292.292786,671.027039   C292.235596,664.371399 292.178406,657.715820 292.263092,650.243652   C292.210907,649.143738 292.158691,648.043823 292.294891,646.028687  M966.783142,368.932953   C966.769409,437.595520 966.751099,506.258087 966.742859,574.920654   C966.730164,680.580750 966.717651,786.240784 966.747925,891.900879   C966.748840,895.034241 966.669739,898.343506 967.590698,901.267517   C970.294128,909.851196 978.275146,913.434204 989.318726,911.510498   C997.719360,910.047180 1001.971741,904.364563 1001.971619,894.491333   C1001.969788,747.334045 1001.961609,600.176697 1001.952209,453.019379   C1001.950439,425.521179 1001.952881,398.022949 1001.920898,370.524780   C1001.907227,358.791809 996.975586,353.962952 985.091675,353.910522   C983.925110,353.905396 982.758423,353.885895 981.591919,353.892883   C972.990662,353.944550 968.157043,358.284119 966.862793,367.501343   C966.897095,367.671387 966.931396,367.841431 966.783142,368.932953  M1055.220459,889.409973   C1055.820923,889.233826 1056.421387,889.057678 1057.850586,888.523621   C1101.492554,884.587524 1123.051758,850.791992 1127.469727,823.363892   C1127.922607,818.235718 1128.766846,813.107910 1128.771118,807.979370   C1128.868164,691.441101 1128.878174,574.902832 1128.863281,458.364532   C1128.863037,455.897400 1128.378906,453.430359 1128.206299,450.124939   C1124.010864,414.422455 1100.864990,389.008118 1066.877686,383.471985   C1059.061035,382.198792 1050.980591,382.544281 1042.609253,381.549805   C1038.397583,381.749207 1034.185913,381.948639 1029.094360,382.445129   C1027.824341,382.564117 1026.554321,382.683105 1025.351562,382.795807   C1025.351562,551.509033 1025.351562,719.927124 1025.351562,888.987488   C1035.423096,888.987488 1045.209595,888.987488 1055.220459,889.409973  M477.141968,754.499939   C477.141968,799.093811 477.141968,843.687744 477.141968,888.350586   C632.875488,888.350586 788.031616,888.350586 943.081116,888.350586   C943.081116,718.413635 943.081116,548.901917 943.081116,379.377655   C787.606262,379.377655 632.562744,379.377655 477.142822,379.377655   C477.142822,504.290680 477.142822,628.895264 477.141968,754.499939  M315.672485,567.499817   C315.679901,648.130066 315.667755,728.760376 315.704376,809.390625   C315.719086,841.798462 334.677094,869.490906 364.462097,880.392639   C374.482208,884.060059 384.901398,885.558716 395.592987,884.830200   C395.592987,717.500610 395.592987,550.816284 395.592987,383.398193   C389.329376,383.972900 383.344147,384.164520 377.482910,385.118134   C340.718048,391.099762 315.504120,421.242889 315.629517,458.548615   C315.750488,494.531952 315.666534,530.515991 315.672485,567.499817  M657.385925,355.666840   C670.044189,355.671875 682.702393,355.680878 695.360657,355.681122   C727.342957,355.681732 759.325256,355.678253 791.307556,355.676697   C801.606934,355.676178 811.906311,355.676636 822.883423,355.676636   C822.883423,353.131195 822.884460,351.352203 822.883240,349.573242   C822.873779,335.242310 822.793945,320.910950 822.881165,306.580597   C822.930847,298.418640 828.251648,293.227203 836.411926,293.125275   C841.217102,293.065247 846.023621,293.114288 851.307312,293.114288   C851.307312,287.959778 851.307312,283.276428 851.307312,278.475281   C749.326172,278.475281 647.748840,278.475281 546.181763,278.475281   C546.181763,283.505951 546.181763,288.215454 546.181763,293.145691   C551.627808,293.145691 556.613464,293.146912 561.599121,293.145447   C571.681030,293.142487 576.151001,297.565613 576.242615,307.788635   C576.314331,315.786713 576.268372,323.785919 576.270996,331.784607   C576.273621,339.545380 576.271545,347.306183 576.271545,355.677460   C603.578735,355.677460 630.039307,355.677460 657.385925,355.666840  M452.435028,903.520569   C452.971710,900.942749 453.887634,898.377197 453.970978,895.784790   C454.185089,889.125916 454.022858,882.455139 454.023254,875.789124   C454.033020,709.302551 454.046570,542.815979 454.040710,376.329376   C454.040588,372.672607 454.311096,368.918671 453.608765,365.377991   C451.796936,356.243652 444.523529,352.584137 431.845520,353.950104   C423.520966,354.847076 418.908844,360.698425 418.909180,370.572266   C418.915070,545.225037 418.933594,719.877869 418.975311,894.530640   C418.975800,896.511719 419.055328,898.561096 419.549805,900.460999   C421.068146,906.295044 424.842133,910.395325 430.788849,911.169800   C438.786133,912.211426 447.021179,912.730713 452.435028,903.520569  M784.500000,1010.362732   C863.755615,1010.362732 943.011292,1010.362732 1022.541382,1010.362732   C1022.541382,1000.509521 1022.541382,991.305359 1022.541382,982.212646   C811.327881,982.212646 600.505554,982.212646 389.466003,982.212646   C389.466003,991.724487 389.466003,1000.811768 389.466003,1010.360962   C521.018250,1010.360962 652.259094,1010.360962 784.500000,1010.362732  M803.500000,208.246597   C782.342468,208.243896 761.184998,208.241623 740.027466,208.238464   C684.552124,208.230179 629.076843,208.206909 573.601501,208.225372   C562.565979,208.229050 557.084778,213.886887 557.114319,224.929703   C557.134399,232.425995 556.981140,239.923706 557.077087,247.418579   C557.185669,255.903427 556.107483,254.966507 564.522705,254.967941   C654.649353,254.983292 744.776062,254.948151 834.902710,254.914520   C836.505066,254.913925 838.107483,254.761063 840.040771,254.662369   C840.040771,244.060165 840.107300,233.920258 840.021912,223.781631   C839.938538,213.886124 834.401855,208.356461 824.490784,208.229630   C817.828369,208.144363 811.163696,208.237518 803.500000,208.246597  M657.500000,958.149231   C718.248047,958.149231 778.996094,958.149231 839.915283,958.149231   C839.915283,942.535339 839.915283,927.613953 839.915283,912.517334   C750.648682,912.517334 661.611084,912.517334 572.422119,912.517334   C572.422119,927.740295 572.422119,942.648987 572.422119,958.153015   C600.616638,958.153015 628.558350,958.153015 657.500000,958.149231  M511.219574,928.505371   C511.219574,938.256897 511.219574,948.008423 511.219574,957.790222   C524.120300,957.790222 536.338806,957.790222 548.862793,957.790222   C548.862793,942.548401 548.862793,927.676697 548.862793,912.611816   C536.242126,912.611816 523.918457,912.611816 511.221130,912.611816   C511.221130,917.899902 511.221130,922.704102 511.219574,928.505371  M881.500366,958.132080   C887.937195,958.132080 894.374023,958.132080 900.950684,958.132080   C900.950684,942.473328 900.950684,927.579407 900.950684,912.232605   C889.009766,912.232605 877.389282,912.160339 865.774292,912.379700   C864.911621,912.395996 863.370178,914.497803 863.356628,915.644409   C863.195007,929.297913 863.257385,942.954224 863.301270,956.609619   C863.302551,957.026672 863.739014,957.442261 864.122681,958.125916   C869.535217,958.125916 875.018250,958.125916 881.500366,958.132080  M1021.002502,407.500061   C1021.002502,444.097565 1021.002502,480.695099 1021.002502,517.292603   C1021.443481,517.288025 1021.884460,517.283447 1022.325439,517.278809   C1022.325439,473.423584 1022.325439,429.568359 1022.325439,385.713135   C1021.884460,385.708344 1021.443542,385.703583 1021.002563,385.698792   C1021.002563,392.632599 1021.002563,399.566376 1021.002502,407.500061  M1022.995300,554.500000   C1022.995300,543.563721 1022.995300,532.627502 1022.995300,521.691223   C1022.562378,521.701599 1022.129517,521.711975 1021.696594,521.722290   C1021.696594,557.577820 1021.696594,593.433350 1021.696594,629.288879   C1022.129456,629.288208 1022.562256,629.287537 1022.995117,629.286926   C1022.995117,604.691284 1022.995117,580.095642 1022.995300,554.500000  M1022.995117,669.587585   C1022.995117,666.938965 1022.995117,664.290405 1022.995117,661.641785   C1022.552551,661.668762 1022.109985,661.695679 1021.667419,661.722595   C1021.667419,687.911255 1021.667419,714.099915 1021.667419,740.288574   C1022.109985,740.288330 1022.552551,740.288147 1022.995117,740.287903   C1022.995117,717.047363 1022.995117,693.806885 1022.995117,669.587585  M1022.995117,872.367310   C1022.995117,856.473450 1022.995117,840.579590 1022.995117,824.685730   C1022.500488,824.697693 1022.005859,824.709717 1021.511230,824.721680   C1021.511230,842.910522 1021.511230,861.099304 1021.511230,879.288086   C1022.005859,879.307983 1022.500488,879.327820 1022.995117,879.347656   C1022.995117,877.338440 1022.995117,875.329285 1022.995117,872.367310  M1022.997314,785.497314   C1022.997314,776.888611 1022.997314,768.279846 1022.997314,759.671143   C1022.559814,759.690186 1022.122314,759.709229 1021.684814,759.728271   C1021.684814,773.584778 1021.684814,787.441345 1021.684814,801.297913   C1022.122253,801.296631 1022.559692,801.295288 1022.997131,801.294006   C1022.997131,796.361023 1022.997131,791.427979 1022.997314,785.497314  M1021.002991,640.681274   C1021.002991,643.572205 1021.002991,646.463135 1021.002991,649.354065   C1021.479614,649.325195 1021.956299,649.296265 1022.432922,649.267395   C1022.432922,644.740417 1022.432922,640.213440 1022.432922,635.686462   C1022.069885,635.676575 1021.706787,635.666626 1021.343750,635.656738   C1021.230286,637.031982 1021.116821,638.407227 1021.002991,640.681274  M1021.024170,815.505310   C1021.340393,816.187683 1021.656616,816.870117 1021.972778,817.552551   C1022.324524,817.439026 1022.676208,817.325562 1023.027893,817.212036   C1022.739014,815.999023 1022.450073,814.786011 1022.161194,813.572998   C1021.791443,813.980286 1021.421692,814.387512 1021.024170,815.505310  M1022.922180,755.352295   C1022.577515,754.766235 1022.232788,754.180176 1021.888000,753.594055   C1021.621216,754.097839 1021.011414,754.866577 1021.155457,755.052979   C1021.509949,755.511841 1022.211060,755.702942 1022.922180,755.352295  z" />
<path fill="#ECF3FA" opacity="1.000000" stroke="none" d=" M477.142395,753.999878   C477.142822,628.895264 477.142822,504.290680 477.142822,379.377655   C632.562744,379.377655 787.606262,379.377655 943.081116,379.377655   C943.081116,548.901917 943.081116,718.413635 943.081116,888.350586   C788.031616,888.350586 632.875488,888.350586 477.141968,888.350586   C477.141968,843.687744 477.141968,799.093811 477.142395,753.999878  M522.568481,440.515747   C521.441589,440.909454 520.314636,441.303162 518.639526,442.038391   C512.067261,445.303925 509.407501,449.890076 510.639343,455.832947   C511.854645,461.695984 516.503357,465.046600 523.607239,465.168121   C524.938965,465.190918 526.271301,465.180695 527.603394,465.180634   C624.012878,465.177582 720.422424,465.170929 816.831909,465.179199   C821.819702,465.179626 826.807434,465.307037 832.191589,466.099426   C833.527649,465.857422 834.863770,465.615417 837.031860,465.173492   C839.311218,465.240204 841.590576,465.306915 844.283264,466.148743   C846.922852,465.889893 849.562439,465.631042 853.091919,465.171753   C854.752197,465.164825 856.412537,465.152191 858.072815,465.151886   C872.019775,465.149353 885.968018,465.258240 899.913208,465.101196   C906.712280,465.024658 911.456360,460.413940 911.836182,454.129272   C912.229309,447.624359 907.793762,442.476013 900.947571,441.611084   C898.654663,441.321442 896.333008,441.259399 893.511902,440.489105   C891.000366,440.691193 888.488770,440.893280 885.075073,441.359924   C767.875488,441.358490 650.675964,441.357880 533.476379,441.343567   C532.322510,441.343445 531.168701,441.162140 529.725586,440.591614   C529.145325,440.750275 528.565063,440.908936 527.184265,441.320679   C525.797974,441.246399 524.411621,441.172119 522.568481,440.515747  M731.916992,520.383118   C700.702148,565.200378 669.502930,610.028503 638.248169,654.817932   C635.149414,659.258606 633.834534,663.907227 636.331604,668.862366   C638.857117,673.874023 643.377258,675.409119 648.855835,675.315063   C659.685852,675.129272 670.521179,675.255676 681.354309,675.254395   C691.159485,675.253296 700.964600,675.254150 711.333679,675.254150   C711.059509,677.317566 710.879883,678.923218 710.629272,680.517639   C706.697815,705.530823 702.749634,730.541443 698.823914,755.555542   C697.816040,761.978088 700.241577,766.863525 705.494019,769.153137   C710.621948,771.388550 716.096802,769.770203 720.010315,764.659607   C723.858459,759.634460 727.552429,754.491272 731.322632,749.406311   C764.950195,704.051636 798.543396,658.671509 832.263794,613.385986   C835.690613,608.783813 837.928711,604.120300 835.382874,598.668152   C832.696777,592.915405 827.384338,591.848816 821.505920,591.882385   C801.173523,591.998474 780.840210,591.934448 760.507202,591.938965   C758.739197,591.939331 756.971191,591.939026 755.001404,591.939026   C755.496765,587.180054 755.887634,583.042786 756.363708,578.915283   C758.902710,556.906311 761.546570,534.908997 763.963379,512.886658   C764.660095,506.538422 761.512024,501.702240 756.220520,499.789093   C751.033630,497.913788 745.639771,499.960052 742.038147,505.247803   C738.756165,510.066223 735.536865,514.927307 731.916992,520.383118  M890.484497,828.015564   C893.982849,827.994446 897.501160,828.203064 900.975159,827.901611   C907.156921,827.365173 911.779724,822.224304 911.832703,816.214233   C911.885742,810.209534 907.284851,805.194946 901.008179,804.593140   C898.694519,804.371277 896.348938,804.444885 894.017944,804.444580   C772.904663,804.428101 651.791382,804.416809 530.678101,804.414673   C527.514648,804.414612 524.331909,804.320374 521.191650,804.620422   C514.623047,805.248108 510.103851,810.404419 510.344604,816.694641   C510.571564,822.622742 515.416809,827.491577 521.653320,827.961060   C523.476379,828.098267 525.316650,828.018433 527.148987,828.018433   C647.929260,828.019165 768.709595,828.017822 890.484497,828.015564  M515.390259,553.263916   C518.058167,554.019348 520.724121,555.424988 523.394226,555.432861   C565.529236,555.555542 607.664795,555.531006 649.800110,555.454773   C657.914001,555.440063 663.038513,550.720276 663.086426,543.682434   C663.136108,536.387207 658.006042,531.849854 649.479797,531.846191   C607.510742,531.827942 565.541626,531.879028 523.572693,531.823120   C518.035645,531.815735 513.722595,533.686096 511.438293,538.841919   C509.054382,544.222412 510.510864,548.913452 515.390259,553.263916  M643.450928,738.723938   C646.449646,738.681030 649.468567,738.842468 652.442444,738.548462   C657.151001,738.082947 660.472839,735.499573 662.217468,731.078430   C663.970215,726.636658 663.509033,722.024109 659.983093,719.100464   C657.296875,716.873108 653.227234,715.216187 649.761292,715.194519   C607.932007,714.933472 566.100647,715.023865 524.269775,715.026306   C523.270325,715.026367 522.264221,715.002258 521.272522,715.101868   C515.083313,715.723328 510.482574,720.631897 510.316864,726.750732   C510.161804,732.475769 514.516785,737.614929 520.486450,738.553162   C522.281433,738.835327 524.141418,738.754395 525.971619,738.754395   C564.802673,738.754395 603.633728,738.742188 643.450928,738.723938  M839.500000,714.975464   C827.670959,714.998047 815.840210,714.908325 804.013428,715.085022   C796.874268,715.191650 791.905396,720.297791 791.904846,727.026062   C791.904236,733.836121 797.113464,738.690796 804.757874,738.708313   C830.581909,738.767517 856.406067,738.741516 882.230225,738.745361   C888.061462,738.746277 893.899658,738.915771 899.722351,738.690063   C908.770325,738.339294 914.232117,730.349426 910.910217,722.369202   C908.649231,716.937866 904.184570,714.955994 898.479126,714.972351   C879.152893,715.027832 859.826416,714.981140 839.500000,714.975464  M910.889771,548.104370   C913.378174,538.500122 908.564941,531.912231 898.604248,531.870239   C871.313416,531.755127 844.021729,531.791077 816.730591,531.864197   C809.192810,531.884399 803.965393,536.907776 803.989807,543.698975   C804.013977,550.395264 809.286743,555.469849 816.815857,555.496826   C844.106750,555.594482 871.398132,555.545837 898.689331,555.537231   C903.899963,555.535583 908.111389,553.710815 910.889771,548.104370  z" />
<path fill="#EDF3FA" opacity="1.000000" stroke="none" d=" M1043.021606,382.144867   C1050.980591,382.544281 1059.061035,382.198792 1066.877686,383.471985   C1100.864990,389.008118 1124.010864,414.422455 1127.890381,450.858826   C1127.425903,452.899750 1127.147339,454.206787 1127.147095,455.513885   C1127.126709,574.562134 1127.127930,693.610352 1127.125732,812.658569   C1127.125732,816.447266 1127.108032,820.235901 1127.098633,824.024597   C1123.051758,850.791992 1101.492554,884.587524 1057.193359,888.581848   C1056.022705,888.755859 1055.509399,888.871643 1054.995972,888.987427   C1045.209595,888.987488 1035.423096,888.987488 1025.351562,888.987488   C1025.351562,719.927124 1025.351562,551.509033 1025.351562,382.795807   C1026.554321,382.683105 1027.824341,382.564117 1029.982666,382.428619   C1034.921143,382.323029 1038.971313,382.233948 1043.021606,382.144867  z" />
<path fill="#EDF3FA" opacity="1.000000" stroke="none" d=" M315.672546,566.999756   C315.666534,530.515991 315.750488,494.531952 315.629517,458.548615   C315.504120,421.242889 340.718048,391.099762 377.482910,385.118134   C383.344147,384.164520 389.329376,383.972900 395.592987,383.398193   C395.592987,550.816284 395.592987,717.500610 395.592987,884.830200   C384.901398,885.558716 374.482208,884.060059 364.462097,880.392639   C334.677094,869.490906 315.719086,841.798462 315.704376,809.390625   C315.667755,728.760376 315.679901,648.130066 315.672546,566.999756  z" />
<path fill="#61809A" opacity="1.000000" stroke="none" d=" M656.942871,355.672150   C630.039307,355.677460 603.578735,355.677460 576.271545,355.677460   C576.271545,347.306183 576.273621,339.545380 576.270996,331.784607   C576.268372,323.785919 576.314331,315.786713 576.242615,307.788635   C576.151001,297.565613 571.681030,293.142487 561.599121,293.145447   C556.613464,293.146912 551.627808,293.145691 546.181763,293.145691   C546.181763,288.215454 546.181763,283.505951 546.181763,278.475281   C647.748840,278.475281 749.326172,278.475281 851.307312,278.475281   C851.307312,283.276428 851.307312,287.959778 851.307312,293.114288   C846.023621,293.114288 841.217102,293.065247 836.411926,293.125275   C828.251648,293.227203 822.930847,298.418640 822.881165,306.580597   C822.793945,320.910950 822.873779,335.242310 822.883240,349.573242   C822.884460,351.352203 822.883423,353.131195 822.883423,355.676636   C811.906311,355.676636 801.606934,355.676178 791.307556,355.676697   C759.325256,355.678253 727.342957,355.681732 695.360657,355.681122   C682.702393,355.680878 670.044189,355.671875 656.942871,355.672150  z" />
<path fill="#61809A" opacity="1.000000" stroke="none" d=" M966.989075,366.996552   C968.157043,358.284119 972.990662,353.944550 981.591919,353.892883   C982.758423,353.885895 983.925110,353.905396 985.091675,353.910522   C996.975586,353.962952 1001.907227,358.791809 1001.920898,370.524780   C1001.952881,398.022949 1001.950439,425.521179 1001.952209,453.019379   C1001.961609,600.176697 1001.969788,747.334045 1001.971619,894.491333   C1001.971741,904.364563 997.719360,910.047180 989.318726,911.510498   C978.275146,913.434204 970.294128,909.851196 967.590698,901.267517   C966.669739,898.343506 966.748840,895.034241 966.747925,891.900879   C966.717651,786.240784 966.730164,680.580750 966.742859,574.920654   C966.751099,506.258087 966.769409,437.595520 967.044922,368.382507   C967.376038,367.725586 967.526978,367.556824 967.501099,367.522888   C967.353699,367.329651 967.164246,367.168549 966.989075,366.996552  z" />
<path fill="#61809A" opacity="1.000000" stroke="none" d=" M452.254242,903.865906   C447.021179,912.730713 438.786133,912.211426 430.788849,911.169800   C424.842133,910.395325 421.068146,906.295044 419.549805,900.460999   C419.055328,898.561096 418.975800,896.511719 418.975311,894.530640   C418.933594,719.877869 418.915070,545.225037 418.909180,370.572266   C418.908844,360.698425 423.520966,354.847076 431.845520,353.950104   C444.523529,352.584137 451.796936,356.243652 453.608765,365.377991   C454.311096,368.918671 454.040588,372.672607 454.040710,376.329376   C454.046570,542.815979 454.033020,709.302551 454.023254,875.789124   C454.022858,882.455139 454.185089,889.125916 453.970978,895.784790   C453.887634,898.377197 452.971710,900.942749 452.254242,903.865906  z" />
<path fill="#61809A" opacity="1.000000" stroke="none" d=" M784.000000,1010.361816   C652.259094,1010.360962 521.018250,1010.360962 389.466003,1010.360962   C389.466003,1000.811768 389.466003,991.724487 389.466003,982.212646   C600.505554,982.212646 811.327881,982.212646 1022.541382,982.212646   C1022.541382,991.305359 1022.541382,1000.509521 1022.541382,1010.362732   C943.011292,1010.362732 863.755615,1010.362732 784.000000,1010.361816  z" />
<path fill="#61809A" opacity="1.000000" stroke="none" d=" M804.000000,208.248718   C811.163696,208.237518 817.828369,208.144363 824.490784,208.229630   C834.401855,208.356461 839.938538,213.886124 840.021912,223.781631   C840.107300,233.920258 840.040771,244.060165 840.040771,254.662369   C838.107483,254.761063 836.505066,254.913925 834.902710,254.914520   C744.776062,254.948151 654.649353,254.983292 564.522705,254.967941   C556.107483,254.966507 557.185669,255.903427 557.077087,247.418579   C556.981140,239.923706 557.134399,232.425995 557.114319,224.929703   C557.084778,213.886887 562.565979,208.229050 573.601501,208.225372   C629.076843,208.206909 684.552124,208.230179 740.027466,208.238464   C761.184998,208.241623 782.342468,208.243896 804.000000,208.248718  z" />
<path fill="#FBFBFB" opacity="1.000000" stroke="none" d=" M657.000000,958.151123   C628.558350,958.153015 600.616638,958.153015 572.422119,958.153015   C572.422119,942.648987 572.422119,927.740295 572.422119,912.517334   C661.611084,912.517334 750.648682,912.517334 839.915283,912.517334   C839.915283,927.613953 839.915283,942.535339 839.915283,958.149231   C778.996094,958.149231 718.248047,958.149231 657.000000,958.151123  z" />
<path fill="#61809A" opacity="1.000000" stroke="none" d=" M292.120422,685.064758   C292.185394,685.784302 292.250366,686.503906 291.902435,687.855957   C291.696106,692.678528 291.902679,696.868530 292.109253,701.058594   C292.109253,707.173462 292.109253,713.288330 292.109253,719.778198   C279.401306,719.778198 266.995483,719.778198 254.119461,719.778198   C254.119461,657.707275 254.119461,595.601807 254.119461,532.768555   C266.212860,532.768555 278.136505,532.768555 290.522461,533.321045   C290.991669,541.584106 290.935120,549.295654 291.055237,557.004456   C291.081573,558.692871 291.737335,560.371521 292.103210,562.054626   C292.174744,564.063904 292.246277,566.073120 291.923004,568.744385   C291.726746,571.292419 291.925293,573.178467 292.123810,575.064514   C292.180817,598.719238 292.237854,622.373962 291.918213,646.696655   C291.734741,648.596497 291.927979,649.828308 292.121216,651.060181   C292.178406,657.715820 292.235596,664.371399 291.884033,671.766235   C291.690308,676.691895 291.905365,680.878296 292.120422,685.064758  z" />
<path fill="#DCE2E9" opacity="1.000000" stroke="none" d=" M122.998734,604.035156   C145.692474,603.974854 168.386230,603.914612 191.609344,604.303101   C194.042496,606.445740 195.788193,607.063660 196.998550,604.037842   C198.070267,603.976929 199.141998,603.915955 200.645569,604.241455   C201.717773,604.431335 202.358139,604.234863 202.998505,604.038391   C205.375168,603.977112 207.751846,603.915894 210.631607,604.306946   C215.683258,607.675415 219.717422,607.434204 222.998123,604.049927   C224.716812,603.980103 226.435501,603.910217 228.573212,604.338623   C228.346039,607.369812 227.612656,609.884949 227.086761,612.442749   C226.778030,613.944336 226.568344,615.538330 226.728485,617.046753   C226.948730,619.121399 227.897232,621.146729 227.944427,623.206665   C228.104614,630.198547 227.753281,637.208801 228.096375,644.187500   C228.316513,648.665283 227.106354,650.170776 222.352585,650.119568   C198.870163,649.866760 175.383331,649.964050 151.898849,650.087158   C150.263016,650.095703 148.633530,651.314758 147.001068,651.970825   C146.246628,652.032776 145.492172,652.094788 144.318802,651.732422   C142.933640,651.527405 141.967422,651.746704 141.001205,651.966003   C137.633789,652.026550 134.266357,652.087097 130.359314,651.668579   C125.533981,649.746887 121.177063,648.478516 116.999611,646.770996   C115.451363,646.138123 113.096138,644.316772 113.225525,643.309204   C113.696991,639.637939 110.758896,635.339905 115.814644,632.308655   C122.391945,628.365234 122.083687,623.093018 115.639961,618.837524   C111.929596,616.387207 111.914398,613.666809 115.458336,610.718567   C118.039024,608.571594 120.489944,606.268616 122.998734,604.035156  z" />
<path fill="#61809A" opacity="1.000000" stroke="none" d=" M511.220337,928.006836   C511.221130,922.704102 511.221130,917.899902 511.221130,912.611816   C523.918457,912.611816 536.242126,912.611816 548.862793,912.611816   C548.862793,927.676697 548.862793,942.548401 548.862793,957.790222   C536.338806,957.790222 524.120300,957.790222 511.219574,957.790222   C511.219574,948.008423 511.219574,938.256897 511.220337,928.006836  z" />
<path fill="#61809A" opacity="1.000000" stroke="none" d=" M881.000793,958.129028   C875.018250,958.125916 869.535217,958.125916 864.122681,958.125916   C863.739014,957.442261 863.302551,957.026672 863.301270,956.609619   C863.257385,942.954224 863.195007,929.297913 863.356628,915.644409   C863.370178,914.497803 864.911621,912.395996 865.774292,912.379700   C877.389282,912.160339 889.009766,912.232605 900.950684,912.232605   C900.950684,927.579407 900.950684,942.473328 900.950684,958.132080   C894.374023,958.132080 887.937195,958.132080 881.000793,958.129028  z" />
<path fill="#CDCECE" opacity="1.000000" stroke="none" d=" M1127.284180,823.694214   C1127.108032,820.235901 1127.125732,816.447266 1127.125732,812.658569   C1127.127930,693.610352 1127.126709,574.562134 1127.147095,455.513885   C1127.147339,454.206787 1127.425903,452.899750 1127.847412,451.277985   C1128.378906,453.430359 1128.863037,455.897400 1128.863281,458.364532   C1128.878174,574.902832 1128.868164,691.441101 1128.771118,807.979370   C1128.766846,813.107910 1127.922607,818.235718 1127.284180,823.694214  z" />
<path fill="#E2E7ED" opacity="1.000000" stroke="none" d=" M122.540268,603.950684   C120.489944,606.268616 118.039024,608.571594 115.458336,610.718567   C111.914398,613.666809 111.929596,616.387207 115.639961,618.837524   C122.083687,623.093018 122.391945,628.365234 115.814644,632.308655   C110.758896,635.339905 113.696991,639.637939 113.225525,643.309204   C113.096138,644.316772 115.451363,646.138123 116.999611,646.770996   C121.177063,648.478516 125.533981,649.746887 129.909073,651.575195   C124.190697,652.028992 118.382988,652.104858 112.575050,652.154297   C111.931717,652.159790 111.287094,652.014038 110.451477,651.915955   C110.451477,635.956360 110.451477,620.101257 110.451477,603.866272   C114.507057,603.866272 118.294426,603.866272 122.540268,603.950684  z" />
<path fill="#E2E7ED" opacity="1.000000" stroke="none" d=" M147.462448,652.058960   C148.633530,651.314758 150.263016,650.095703 151.898849,650.087158   C175.383331,649.964050 198.870163,649.866760 222.352585,650.119568   C227.106354,650.170776 228.316513,648.665283 228.096375,644.187500   C227.753281,637.208801 228.104614,630.198547 227.944427,623.206665   C227.897232,621.146729 226.948730,619.121399 226.728485,617.046753   C226.568344,615.538330 226.778030,613.944336 227.086761,612.442749   C227.612656,609.884949 228.346039,607.369812 228.996033,604.424072   C229.554169,604.428040 230.590958,604.842041 230.593201,605.261597   C230.675964,620.717896 230.662872,636.174683 230.662872,652.146973   C202.809525,652.146973 175.366669,652.146973 147.462448,652.058960  z" />
<path fill="#0B0B0B" opacity="1.000000" stroke="none" d=" M1021.002563,407.000122   C1021.002563,399.566376 1021.002563,392.632599 1021.002563,385.698792   C1021.443542,385.703583 1021.884460,385.708344 1022.325439,385.713135   C1022.325439,429.568359 1022.325439,473.423584 1022.325439,517.278809   C1021.884460,517.283447 1021.443481,517.288025 1021.002502,517.292603   C1021.002502,480.695099 1021.002502,444.097565 1021.002563,407.000122  z" />
<path fill="#0B0B0B" opacity="1.000000" stroke="none" d=" M1022.995239,555.000000   C1022.995117,580.095642 1022.995117,604.691284 1022.995117,629.286926   C1022.562256,629.287537 1022.129456,629.288208 1021.696594,629.288879   C1021.696594,593.433350 1021.696594,557.577820 1021.696594,521.722290   C1022.129517,521.711975 1022.562378,521.701599 1022.995300,521.691223   C1022.995300,532.627502 1022.995300,543.563721 1022.995239,555.000000  z" />
<path fill="#0B0B0B" opacity="1.000000" stroke="none" d=" M1022.995117,670.076965   C1022.995117,693.806885 1022.995117,717.047363 1022.995117,740.287903   C1022.552551,740.288147 1022.109985,740.288330 1021.667419,740.288574   C1021.667419,714.099915 1021.667419,687.911255 1021.667419,661.722595   C1022.109985,661.695679 1022.552551,661.668762 1022.995117,661.641785   C1022.995117,664.290405 1022.995117,666.938965 1022.995117,670.076965  z" />
<path fill="#0B0B0B" opacity="1.000000" stroke="none" d=" M1022.995117,872.843689   C1022.995117,875.329285 1022.995117,877.338440 1022.995117,879.347656   C1022.500488,879.327820 1022.005859,879.307983 1021.511230,879.288086   C1021.511230,861.099304 1021.511230,842.910522 1021.511230,824.721680   C1022.005859,824.709717 1022.500488,824.697693 1022.995117,824.685730   C1022.995117,840.579590 1022.995117,856.473450 1022.995117,872.843689  z" />
<path fill="#0B0B0B" opacity="1.000000" stroke="none" d=" M1022.997192,785.996094   C1022.997131,791.427979 1022.997131,796.361023 1022.997131,801.294006   C1022.559692,801.295288 1022.122253,801.296631 1021.684814,801.297913   C1021.684814,787.441345 1021.684814,773.584778 1021.684814,759.728271   C1022.122314,759.709229 1022.559814,759.690186 1022.997314,759.671143   C1022.997314,768.279846 1022.997314,776.888611 1022.997192,785.996094  z" />
<path fill="#0B0B0B" opacity="1.000000" stroke="none" d=" M1021.003174,640.231873   C1021.116821,638.407227 1021.230286,637.031982 1021.343750,635.656738   C1021.706787,635.666626 1022.069885,635.676575 1022.432922,635.686462   C1022.432922,640.213440 1022.432922,644.740417 1022.432922,649.267395   C1021.956299,649.296265 1021.479614,649.325195 1021.002991,649.354065   C1021.002991,646.463135 1021.002991,643.572205 1021.003174,640.231873  z" />
<path fill="#61809A" opacity="1.000000" stroke="none" d=" M292.173340,561.585510   C291.737335,560.371521 291.081573,558.692871 291.055237,557.004456   C290.935120,549.295654 290.991669,541.584106 290.985138,533.398926   C291.451324,534.338867 292.303497,535.749329 292.318848,537.168701   C292.405090,545.150085 292.289917,553.133606 292.173340,561.585510  z" />
<path fill="#E2E7ED" opacity="1.000000" stroke="none" d=" M222.543915,603.967224   C219.717422,607.434204 215.683258,607.675415 211.068268,604.400574   C214.697784,603.989380 218.393753,603.936951 222.543915,603.967224  z" />
<path fill="#0B0B0B" opacity="1.000000" stroke="none" d=" M1042.815430,381.847351   C1038.971313,382.233948 1034.921143,382.323029 1030.422607,382.280090   C1034.185913,381.948639 1038.397583,381.749207 1042.815430,381.847351  z" />
<path fill="#61809A" opacity="1.000000" stroke="none" d=" M292.192017,684.600098   C291.905365,680.878296 291.690308,676.691895 291.789246,672.223389   C292.156738,676.006104 292.210175,680.070740 292.192017,684.600098  z" />
<path fill="#61809A" opacity="1.000000" stroke="none" d=" M292.182495,700.594604   C291.902679,696.868530 291.696106,692.678528 291.807678,688.207642   C292.169128,691.994812 292.212463,696.062683 292.182495,700.594604  z" />
<path fill="#E2E7ED" opacity="1.000000" stroke="none" d=" M196.588074,603.951416   C195.788193,607.063660 194.042496,606.445740 192.070099,604.395752   C193.393539,603.981384 194.785568,603.923157 196.588074,603.951416  z" />
<path fill="#0B0B0B" opacity="1.000000" stroke="none" d=" M1021.038086,815.150024   C1021.421692,814.387512 1021.791443,813.980286 1022.161194,813.572998   C1022.450073,814.786011 1022.739014,815.999023 1023.027893,817.212036   C1022.676208,817.325562 1022.324524,817.439026 1021.972778,817.552551   C1021.656616,816.870117 1021.340393,816.187683 1021.038086,815.150024  z" />
<path fill="#0B0B0B" opacity="1.000000" stroke="none" d=" M1022.847412,755.677002   C1022.211060,755.702942 1021.509949,755.511841 1021.155457,755.052979   C1021.011414,754.866577 1021.621216,754.097839 1021.888062,753.594116   C1022.232788,754.180176 1022.577515,754.766235 1022.847412,755.677002  z" />
<path fill="#E2E7ED" opacity="1.000000" stroke="none" d=" M141.370758,652.053955   C141.967422,651.746704 142.933640,651.527405 143.949371,651.638672   C143.246017,652.026733 142.493164,652.084290 141.370758,652.053955  z" />
<path fill="#61809A" opacity="1.000000" stroke="none" d=" M292.197205,574.630432   C291.925293,573.178467 291.726746,571.292419 291.829529,569.166504   C292.177429,570.683228 292.223999,572.439758 292.197205,574.630432  z" />
<path fill="#0B0B0B" opacity="1.000000" stroke="none" d=" M1055.108154,889.198730   C1055.509399,888.871643 1056.022705,888.755859 1056.779053,888.760803   C1056.421387,889.057678 1055.820923,889.233826 1055.108154,889.198730  z" />
<path fill="#E2E7ED" opacity="1.000000" stroke="none" d=" M202.669281,603.953125   C202.358139,604.234863 201.717773,604.431335 201.039490,604.333740   C201.447723,603.982361 201.893890,603.925110 202.669281,603.953125  z" />
<path fill="#61809A" opacity="1.000000" stroke="none" d=" M292.192169,650.651917   C291.927979,649.828308 291.734741,648.596497 291.824005,647.154297   C292.158691,648.043823 292.210907,649.143738 292.192169,650.651917  z" />
<path fill="#61809A" opacity="1.000000" stroke="none" d=" M966.925903,367.248962   C967.164246,367.168549 967.353699,367.329651 967.501099,367.522888   C967.526978,367.556824 967.376038,367.725586 967.136169,367.921753   C966.931396,367.841431 966.897095,367.671387 966.925903,367.248962  z" />
<path fill="#040403" opacity="1.000000" stroke="none" d=" M732.103516,520.076355   C735.536865,514.927307 738.756165,510.066223 742.038147,505.247803   C745.639771,499.960052 751.033630,497.913788 756.220520,499.789093   C761.512024,501.702240 764.660095,506.538422 763.963379,512.886658   C761.546570,534.908997 758.902710,556.906311 756.363708,578.915283   C755.887634,583.042786 755.496765,587.180054 755.001404,591.939026   C756.971191,591.939026 758.739197,591.939331 760.507202,591.938965   C780.840210,591.934448 801.173523,591.998474 821.505920,591.882385   C827.384338,591.848816 832.696777,592.915405 835.382874,598.668152   C837.928711,604.120300 835.690613,608.783813 832.263794,613.385986   C798.543396,658.671509 764.950195,704.051636 731.322632,749.406311   C727.552429,754.491272 723.858459,759.634460 720.010315,764.659607   C716.096802,769.770203 710.621948,771.388550 705.494019,769.153137   C700.241577,766.863525 697.816040,761.978088 698.823914,755.555542   C702.749634,730.541443 706.697815,705.530823 710.629272,680.517639   C710.879883,678.923218 711.059509,677.317566 711.333679,675.254150   C700.964600,675.254150 691.159485,675.253296 681.354309,675.254395   C670.521179,675.255676 659.685852,675.129272 648.855835,675.315063   C643.377258,675.409119 638.857117,673.874023 636.331604,668.862366   C633.834534,663.907227 635.149414,659.258606 638.248169,654.817932   C669.502930,610.028503 700.702148,565.200378 732.103516,520.076355  M800.118103,617.436646   C801.231628,613.716003 798.085083,615.445923 797.119202,615.437012   C779.458069,615.272827 761.795288,615.309631 744.133118,615.231750   C733.907043,615.186646 729.492432,610.180359 730.663757,600.169434   C731.554382,592.558105 732.444702,584.946594 733.297119,577.330994   C734.007446,570.985107 734.662598,564.633057 735.342163,558.283752   C734.987122,558.155151 734.632080,558.026550 734.277039,557.897949   C712.468262,588.935852 690.659485,619.973694 668.694458,651.234009   C669.891479,651.652222 670.183289,651.843140 670.475342,651.843567   C687.471313,651.866272 704.467285,651.856567 721.463257,651.887451   C733.236694,651.908813 737.863647,657.344604 736.029968,668.846252   C733.739136,683.216187 731.487671,697.592407 729.197632,712.102905   C729.746338,711.985535 729.985107,712.008057 730.059204,711.908142   C753.288208,680.633545 776.505859,649.350403 800.118103,617.436646  z" />
<path fill="#060606" opacity="1.000000" stroke="none" d=" M831.795227,465.375336   C826.807434,465.307037 821.819702,465.179626 816.831909,465.179199   C720.422424,465.170929 624.012878,465.177582 527.603394,465.180634   C526.271301,465.180695 524.938965,465.190918 523.607239,465.168121   C516.503357,465.046600 511.854645,461.695984 510.639343,455.832947   C509.407501,449.890076 512.067261,445.303925 519.304260,441.866150   C520.987793,441.495209 522.006531,441.296539 523.025330,441.097870   C524.411621,441.172119 525.797974,441.246399 527.917480,441.300110   C529.105347,441.208191 529.560120,441.136780 530.014832,441.065369   C531.168701,441.162140 532.322510,441.343445 533.476379,441.343567   C650.675964,441.357880 767.875488,441.358490 885.962036,441.339233   C889.240845,441.243500 891.632690,441.168427 894.024536,441.093323   C896.333008,441.259399 898.654663,441.321442 900.947571,441.611084   C907.793762,442.476013 912.229309,447.624359 911.836182,454.129272   C911.456360,460.413940 906.712280,465.024658 899.913208,465.101196   C885.968018,465.258240 872.019775,465.149353 858.072815,465.151886   C856.412537,465.152191 854.752197,465.164825 852.281128,465.182556   C848.936890,465.253418 846.403381,465.313507 843.869934,465.373596   C841.590576,465.306915 839.311218,465.240204 836.310547,465.184143   C834.324524,465.254974 833.059875,465.315155 831.795227,465.375336  z" />
<path fill="#060607" opacity="1.000000" stroke="none" d=" M889.987183,828.016113   C768.709595,828.017822 647.929260,828.019165 527.148987,828.018433   C525.316650,828.018433 523.476379,828.098267 521.653320,827.961060   C515.416809,827.491577 510.571564,822.622742 510.344604,816.694641   C510.103851,810.404419 514.623047,805.248108 521.191650,804.620422   C524.331909,804.320374 527.514648,804.414612 530.678101,804.414673   C651.791382,804.416809 772.904663,804.428101 894.017944,804.444580   C896.348938,804.444885 898.694519,804.371277 901.008179,804.593140   C907.284851,805.194946 911.885742,810.209534 911.832703,816.214233   C911.779724,822.224304 907.156921,827.365173 900.975159,827.901611   C897.501160,828.203064 893.982849,827.994446 889.987183,828.016113  z" />
<path fill="#070707" opacity="1.000000" stroke="none" d=" M515.091919,553.037415   C510.510864,548.913452 509.054382,544.222412 511.438293,538.841919   C513.722595,533.686096 518.035645,531.815735 523.572693,531.823120   C565.541626,531.879028 607.510742,531.827942 649.479797,531.846191   C658.006042,531.849854 663.136108,536.387207 663.086426,543.682434   C663.038513,550.720276 657.914001,555.440063 649.800110,555.454773   C607.664795,555.531006 565.529236,555.555542 523.394226,555.432861   C520.724121,555.424988 518.058167,554.019348 515.091919,553.037415  z" />
<path fill="#070707" opacity="1.000000" stroke="none" d=" M642.957886,738.728149   C603.633728,738.742188 564.802673,738.754395 525.971619,738.754395   C524.141418,738.754395 522.281433,738.835327 520.486450,738.553162   C514.516785,737.614929 510.161804,732.475769 510.316864,726.750732   C510.482574,720.631897 515.083313,715.723328 521.272522,715.101868   C522.264221,715.002258 523.270325,715.026367 524.269775,715.026306   C566.100647,715.023865 607.932007,714.933472 649.761292,715.194519   C653.227234,715.216187 657.296875,716.873108 659.983093,719.100464   C663.509033,722.024109 663.970215,726.636658 662.217468,731.078430   C660.472839,735.499573 657.151001,738.082947 652.442444,738.548462   C649.468567,738.842468 646.449646,738.681030 642.957886,738.728149  z" />
<path fill="#070708" opacity="1.000000" stroke="none" d=" M840.000000,714.974487   C859.826416,714.981140 879.152893,715.027832 898.479126,714.972351   C904.184570,714.955994 908.649231,716.937866 910.910217,722.369202   C914.232117,730.349426 908.770325,738.339294 899.722351,738.690063   C893.899658,738.915771 888.061462,738.746277 882.230225,738.745361   C856.406067,738.741516 830.581909,738.767517 804.757874,738.708313   C797.113464,738.690796 791.904236,733.836121 791.904846,727.026062   C791.905396,720.297791 796.874268,715.191650 804.013428,715.085022   C815.840210,714.908325 827.670959,714.998047 840.000000,714.974487  z" />
<path fill="#070707" opacity="1.000000" stroke="none" d=" M910.715759,548.447754   C908.111389,553.710815 903.899963,555.535583 898.689331,555.537231   C871.398132,555.545837 844.106750,555.594482 816.815857,555.496826   C809.286743,555.469849 804.013977,550.395264 803.989807,543.698975   C803.965393,536.907776 809.192810,531.884399 816.730591,531.864197   C844.021729,531.791077 871.313416,531.755127 898.604248,531.870239   C908.564941,531.912231 913.378174,538.500122 910.715759,548.447754  z" />
<path fill="#FBFFFF" opacity="1.000000" stroke="none" d=" M844.076599,465.761169   C846.403381,465.313507 848.936890,465.253418 851.836182,465.282776   C849.562439,465.631042 846.922852,465.889893 844.076599,465.761169  z" />
<path fill="#FBFFFF" opacity="1.000000" stroke="none" d=" M831.993408,465.737366   C833.059875,465.315155 834.324524,465.254974 835.894531,465.284119   C834.863770,465.615417 833.527649,465.857422 831.993408,465.737366  z" />
<path fill="#FFFFFF" opacity="1.000000" stroke="none" d=" M893.768188,440.791229   C891.632690,441.168427 889.240845,441.243500 886.413086,441.206970   C888.488770,440.893280 891.000366,440.691193 893.768188,440.791229  z" />
<path fill="#FFFFFF" opacity="1.000000" stroke="none" d=" M522.796875,440.806824   C522.006531,441.296539 520.987793,441.495209 519.578369,441.695374   C520.314636,441.303162 521.441589,440.909454 522.796875,440.806824  z" />
<path fill="#FFFFFF" opacity="1.000000" stroke="none" d=" M529.870239,440.828491   C529.560120,441.136780 529.105347,441.208191 528.317749,441.173584   C528.565063,440.908936 529.145325,440.750275 529.870239,440.828491  z" />
<path fill="#F4ED51" opacity="1.000000" stroke="none" d=" M799.920898,617.752075   C776.505859,649.350403 753.288208,680.633545 730.059204,711.908142   C729.985107,712.008057 729.746338,711.985535 729.197632,712.102905   C731.487671,697.592407 733.739136,683.216187 736.029968,668.846252   C737.863647,657.344604 733.236694,651.908813 721.463257,651.887451   C704.467285,651.856567 687.471313,651.866272 670.475342,651.843567   C670.183289,651.843140 669.891479,651.652222 668.694458,651.234009   C690.659485,619.973694 712.468262,588.935852 734.277039,557.897949   C734.632080,558.026550 734.987122,558.155151 735.342163,558.283752   C734.662598,564.633057 734.007446,570.985107 733.297119,577.330994   C732.444702,584.946594 731.554382,592.558105 730.663757,600.169434   C729.492432,610.180359 733.907043,615.186646 744.133118,615.231750   C761.795288,615.309631 779.458069,615.272827 797.119202,615.437012   C798.085083,615.445923 801.231628,613.716003 799.920898,617.752075  z" />
</svg>
