<svg version="1.1" id="Layer_1" xmlns="http://www.w3.org/2000/svg" xmlns:xlink="http://www.w3.org/1999/xlink" x="0px" y="0px"
	 width="100%" viewBox="0 0 1254 1254" xml:space="preserve">
<path fill="#61809A" opacity="1.000000" stroke="#000000" stroke-width="12" stroke-linejoin="round" stroke-linecap="round" 
	d="
M100.778458,741.243286 
	C88.764046,682.197510 86.555565,623.111450 93.275055,563.750000 
	C102.744537,480.094635 128.808044,401.827759 172.574585,329.883240 
	C237.783264,222.691696 329.251465,146.940369 447.417755,104.116661 
	C512.679688,80.465607 580.128479,68.883919 649.560181,72.430588 
	C762.718018,78.210846 864.948669,114.762970 954.828125,184.346466 
	C1023.772827,237.722610 1075.300903,304.937592 1111.982422,383.778748 
	C1152.484253,470.830505 1170.973511,562.511841 1165.384521,658.208496 
	C1156.773804,805.645325 1100.095215,932.113403 993.640137,1035.071045 
	C932.541565,1094.162476 860.751038,1136.237427 779.551697,1161.590210 
	C704.868835,1184.908203 628.648987,1190.673096 551.277893,1178.547852 
	C473.641205,1166.380859 402.684967,1137.084839 337.360901,1093.790161 
	C258.640503,1041.616821 197.710052,973.296143 153.594360,889.950989 
	C128.809067,843.125610 111.582115,793.528198 100.778458,741.243286 
M976.867493,948.363098 
	C980.557617,943.847717 984.321411,939.390320 987.927002,934.808411 
	C1053.644531,851.297058 1088.956421,756.337097 1093.767944,650.296082 
	C1097.332031,571.746948 1082.377197,496.375885 1049.969971,424.855682 
	C994.753235,302.996338 903.624695,219.256668 777.770508,174.257736 
	C699.821655,146.387283 619.727234,141.301331 538.463928,157.825363 
	C452.031281,175.400513 376.826782,214.956604 312.796661,275.275879 
	C256.596558,328.218903 216.907166,392.196198 191.052887,464.763611 
	C165.319931,536.990540 155.782730,611.249329 165.150848,687.554626 
	C172.882858,750.533691 191.391251,810.221191 222.750458,865.508484 
	C289.695404,983.534607 388.243317,1061.769287 519.361816,1097.598267 
	C586.437378,1115.927124 654.413513,1116.746704 722.282349,1101.587891 
	C823.837830,1078.905029 908.356750,1027.524780 976.867493,948.363098 
z"/>
<path fill="#61809A" opacity="1.000000" stroke="#000000" stroke-width="12" stroke-linejoin="round" stroke-linecap="round" 
	d="
M793.634460,602.773682 
	C792.228394,605.164307 790.519897,607.428406 789.459961,609.963745 
	C750.859924,702.292603 712.319397,794.646362 673.772766,886.997498 
	C665.054382,907.885254 656.311646,928.762817 647.672607,949.683289 
	C646.649780,952.160034 645.393494,953.233215 642.542297,953.182068 
	C631.716064,952.987671 620.881348,952.942017 610.056702,953.169678 
	C606.677734,953.240723 605.156982,952.193298 603.871643,949.035217 
	C586.934143,907.418945 569.897583,865.842590 552.755005,824.310303 
	C532.739685,775.817993 512.620117,727.368713 492.497528,678.920837 
	C482.730469,655.405273 472.857178,631.933838 463.017700,608.448425 
	C462.345245,606.843323 461.552704,605.288513 460.012970,603.877197 
	C460.012970,605.444336 460.012939,607.011475 460.012939,608.578613 
	C460.011292,726.871887 460.010712,845.165100 459.997406,963.458374 
	C459.997223,965.110229 459.838104,966.762146 459.223267,968.164429 
	C456.971222,967.613770 455.249481,967.052979 453.526855,967.050110 
	C422.043274,966.997192 390.559540,967.012512 359.075867,967.009949 
	C351.997223,967.009399 351.993256,967.003479 351.993195,960.146423 
	C351.991455,775.742004 351.994446,591.337524 351.939423,406.933105 
	C351.938812,404.912292 351.182343,402.891632 350.778687,400.870911 
	C352.158447,400.596283 353.538025,400.082825 354.917999,400.081726 
	C395.065338,400.049500 435.212860,400.110626 475.359894,400.001221 
	C478.667480,399.992218 480.230408,400.876801 481.594666,404.040253 
	C523.254150,500.640015 565.035583,597.187195 606.821411,693.732483 
	C612.436646,706.706482 618.167419,719.630615 623.867554,732.567749 
	C624.525330,734.060669 625.331055,735.488342 626.481201,737.763184 
	C630.440002,729.093811 634.157776,721.196289 637.675293,713.210571 
	C665.647827,649.704773 693.614319,586.196167 721.516418,522.659363 
	C738.656799,483.628571 755.750183,444.576660 772.654541,405.443420 
	C774.445679,401.297058 776.505188,399.911285 781.072144,399.938782 
	C821.717224,400.183777 862.364075,400.129944 903.522095,400.626953 
	C904.354187,401.392700 904.674561,401.695740 904.994934,401.998810 
	C905.084534,404.988586 905.252625,407.978363 905.252563,410.968140 
	C905.249695,596.002686 905.233154,781.037231 904.657471,966.527405 
	C867.742920,966.975647 831.388733,966.968262 795.021545,966.494873 
	C795.001709,872.549255 794.994690,779.069763 794.988281,685.590210 
	C794.986450,659.262634 795.005188,632.935059 794.927917,606.607727 
	C794.924133,605.328430 794.084717,604.051636 793.634460,602.773682 
z"/>
<path fill="#FDCF30" opacity="1.000000" stroke="#000000" stroke-width="12" stroke-linejoin="round" stroke-linecap="round" 
	d="
M591.043579,471.020569 
	C599.074158,434.767303 607.042480,398.931854 615.218811,362.160950 
	C612.780945,362.160950 610.889893,362.161835 608.998840,362.160828 
	C590.339111,362.150696 571.679382,362.110870 553.019775,362.155884 
	C549.509338,362.164337 546.262146,361.810242 544.537231,358.244110 
	C542.751099,354.551392 544.332642,351.608002 546.676453,348.687622 
	C586.392883,299.201233 626.081482,249.692444 665.714294,200.139053 
	C668.489746,196.668884 671.561523,194.393570 675.950317,196.438309 
	C680.516174,198.565536 679.649536,202.698441 678.671204,206.460571 
	C670.676819,237.202011 662.608093,267.924103 654.568909,298.653900 
	C653.987488,300.876343 653.460571,303.113037 652.708313,306.150543 
	C656.561707,306.150543 659.838745,306.150330 663.115784,306.150543 
	C681.442261,306.151733 699.768921,306.188354 718.095154,306.123444 
	C721.608215,306.110992 724.902893,306.388947 726.578613,309.990387 
	C728.184021,313.440948 726.765503,316.239166 724.595337,319.127655 
	C684.679993,372.254425 644.841553,425.439056 604.996704,478.618835 
	C603.600159,480.482727 602.334290,482.444061 600.957581,484.323364 
	C598.772461,487.305939 595.697327,487.957550 592.514648,486.680420 
	C589.280945,485.382782 588.430908,482.505188 589.153198,479.199036 
	C589.720276,476.602936 590.368896,474.024597 591.043579,471.020569 
z"/>
<path fill="#61809A" opacity="1.000000" stroke="#000000" stroke-width="12" stroke-linejoin="round" stroke-linecap="round" 
	d="
M350.602783,401.248169 
	C351.182343,402.891632 351.938812,404.912292 351.939423,406.933105 
	C351.994446,591.337524 351.991455,775.742004 351.993195,960.146423 
	C351.993256,967.003479 351.997223,967.009399 359.075867,967.009949 
	C390.559540,967.012512 422.043274,966.997192 453.526855,967.050110 
	C455.249481,967.052979 456.971222,967.613770 458.821808,968.276184 
	C428.977478,968.707458 399.004700,968.779663 369.031921,968.845520 
	C363.052429,968.858643 357.072876,968.847473 350.392487,968.847473 
	C350.392487,965.456116 350.392334,962.342224 350.392517,959.228394 
	C350.399933,832.817688 350.407196,706.407043 350.414886,579.996338 
	C350.418488,520.539368 350.422852,461.082397 350.602783,401.248169 
z"/>
<path fill="#61809A" opacity="1.000000" stroke="#000000" stroke-width="12" stroke-linejoin="round" stroke-linecap="round" 
	d="
M793.506714,603.244141 
	C794.084717,604.051636 794.924133,605.328430 794.927917,606.607727 
	C795.005188,632.935059 794.986450,659.262634 794.988281,685.590210 
	C794.994690,779.069763 795.001709,872.549255 795.056519,966.930847 
	C795.161499,968.118591 795.218506,968.404358 795.275513,968.690063 
	C794.622559,967.157837 793.406067,965.627869 793.399841,964.093018 
	C793.275330,933.270264 793.271912,902.446960 793.280273,871.623718 
	C793.304565,782.320679 793.344910,693.017639 793.506714,603.244141 
z"/>
<path fill="#61809A" opacity="1.000000" stroke="#000000" stroke-width="12" stroke-linejoin="round" stroke-linecap="round" 
	d="
M795.671387,968.780273 
	C795.218506,968.404358 795.161499,968.118591 795.069580,967.396851 
	C831.388733,966.968262 867.742920,966.975647 904.568359,966.988647 
	C903.682800,967.631592 902.327332,968.821960 900.968811,968.825439 
	C866.001831,968.915771 831.034546,968.882385 795.671387,968.780273 
z"/>
<path fill="#61809A" opacity="1.000000" stroke="#000000" stroke-width="12" stroke-linejoin="round" stroke-linecap="round" 
	d="
M904.999023,401.583344 
	C904.674561,401.695740 904.354187,401.392700 903.883057,400.782410 
	C904.156006,400.706055 904.579529,400.936981 904.999023,401.583344 
z"/>
</svg>